<mxfile host="app.diagrams.net" agent="Mozilla/5.0 (Windows NT 10.0; Win64; x64) AppleWebKit/537.36 (KHTML, like Gecko) Chrome/138.0.0.0 Safari/537.36" version="28.1.0">
  <diagram name="Page-1" id="--VwJXR4QttlcGdS547W">
    <mxGraphModel dx="786" dy="496" grid="1" gridSize="10" guides="1" tooltips="1" connect="1" arrows="1" fold="1" page="1" pageScale="1" pageWidth="827" pageHeight="1169" math="0" shadow="0">
      <root>
        <mxCell id="0" />
        <mxCell id="1" parent="0" />
        <mxCell id="h3eSmHnoZ_506x8RKsdc-35" value="" style="group" vertex="1" connectable="0" parent="1">
          <mxGeometry x="80" y="30" width="502" height="861.1" as="geometry" />
        </mxCell>
        <mxCell id="h3eSmHnoZ_506x8RKsdc-36" value="" style="edgeStyle=orthogonalEdgeStyle;rounded=0;orthogonalLoop=1;jettySize=auto;html=1;endArrow=none;endFill=0;" edge="1" parent="h3eSmHnoZ_506x8RKsdc-35" source="h3eSmHnoZ_506x8RKsdc-37" target="h3eSmHnoZ_506x8RKsdc-38">
          <mxGeometry relative="1" as="geometry">
            <Array as="points">
              <mxPoint x="123" y="46" />
              <mxPoint x="123" y="66" />
            </Array>
          </mxGeometry>
        </mxCell>
        <mxCell id="h3eSmHnoZ_506x8RKsdc-37" value="&lt;font style=&quot;font-size: 10px;&quot;&gt;root-folder&lt;/font&gt;" style="image;aspect=fixed;perimeter=ellipsePerimeter;html=1;align=center;shadow=0;dashed=0;spacingTop=3;image=img/lib/active_directory/folder.svg;" vertex="1" parent="h3eSmHnoZ_506x8RKsdc-35">
          <mxGeometry width="66.5" height="91.1" as="geometry" />
        </mxCell>
        <mxCell id="h3eSmHnoZ_506x8RKsdc-38" value="&lt;font size=&quot;1&quot;&gt;images&lt;/font&gt;" style="image;aspect=fixed;perimeter=ellipsePerimeter;html=1;align=center;shadow=0;dashed=0;spacingTop=3;image=img/lib/active_directory/folder.svg;" vertex="1" parent="h3eSmHnoZ_506x8RKsdc-35">
          <mxGeometry x="180" y="51.1" width="21.9" height="30" as="geometry" />
        </mxCell>
        <mxCell id="h3eSmHnoZ_506x8RKsdc-39" value="&lt;font size=&quot;1&quot;&gt;icons&lt;/font&gt;" style="image;aspect=fixed;perimeter=ellipsePerimeter;html=1;align=center;shadow=0;dashed=0;spacingTop=3;image=img/lib/active_directory/folder.svg;" vertex="1" parent="h3eSmHnoZ_506x8RKsdc-35">
          <mxGeometry x="180" y="111.1" width="22" height="30.14" as="geometry" />
        </mxCell>
        <mxCell id="h3eSmHnoZ_506x8RKsdc-40" value="&lt;font size=&quot;1&quot;&gt;diagrams&lt;/font&gt;" style="image;aspect=fixed;perimeter=ellipsePerimeter;html=1;align=center;shadow=0;dashed=0;spacingTop=3;image=img/lib/active_directory/folder.svg;" vertex="1" parent="h3eSmHnoZ_506x8RKsdc-35">
          <mxGeometry x="181" y="176.1" width="22" height="30.14" as="geometry" />
        </mxCell>
        <mxCell id="h3eSmHnoZ_506x8RKsdc-41" value="&lt;font size=&quot;1&quot;&gt;objects&lt;/font&gt;" style="image;aspect=fixed;perimeter=ellipsePerimeter;html=1;align=center;shadow=0;dashed=0;spacingTop=3;image=img/lib/active_directory/folder.svg;" vertex="1" parent="h3eSmHnoZ_506x8RKsdc-35">
          <mxGeometry x="181.09999999999997" y="241.1" width="21.9" height="30" as="geometry" />
        </mxCell>
        <mxCell id="h3eSmHnoZ_506x8RKsdc-42" value="&lt;font size=&quot;1&quot;&gt;docs&lt;/font&gt;" style="image;aspect=fixed;perimeter=ellipsePerimeter;html=1;align=center;shadow=0;dashed=0;spacingTop=3;image=img/lib/active_directory/folder.svg;" vertex="1" parent="h3eSmHnoZ_506x8RKsdc-35">
          <mxGeometry x="180" y="311.1" width="21.9" height="30" as="geometry" />
        </mxCell>
        <mxCell id="h3eSmHnoZ_506x8RKsdc-43" value="" style="edgeStyle=elbowEdgeStyle;rounded=0;orthogonalLoop=1;jettySize=auto;html=1;endArrow=none;endFill=0;" edge="1" parent="h3eSmHnoZ_506x8RKsdc-35" source="h3eSmHnoZ_506x8RKsdc-44">
          <mxGeometry relative="1" as="geometry">
            <mxPoint x="242" y="461.1" as="targetPoint" />
          </mxGeometry>
        </mxCell>
        <mxCell id="h3eSmHnoZ_506x8RKsdc-44" value="&lt;font size=&quot;1&quot;&gt;pages&lt;/font&gt;" style="image;aspect=fixed;perimeter=ellipsePerimeter;html=1;align=center;shadow=0;dashed=0;spacingTop=3;image=img/lib/active_directory/folder.svg;" vertex="1" parent="h3eSmHnoZ_506x8RKsdc-35">
          <mxGeometry x="180.05" y="381.1" width="21.9" height="30" as="geometry" />
        </mxCell>
        <mxCell id="h3eSmHnoZ_506x8RKsdc-45" value="" style="endArrow=none;html=1;rounded=0;edgeStyle=elbowEdgeStyle;exitX=0;exitY=0.667;exitDx=0;exitDy=0;exitPerimeter=0;" edge="1" parent="h3eSmHnoZ_506x8RKsdc-35" source="h3eSmHnoZ_506x8RKsdc-47">
          <mxGeometry relative="1" as="geometry">
            <mxPoint x="123" y="800.1" as="sourcePoint" />
            <mxPoint x="33" y="121.1" as="targetPoint" />
            <Array as="points">
              <mxPoint x="33" y="460.1" />
            </Array>
          </mxGeometry>
        </mxCell>
        <mxCell id="h3eSmHnoZ_506x8RKsdc-46" value="" style="edgeStyle=orthogonalEdgeStyle;rounded=0;orthogonalLoop=1;jettySize=auto;html=1;endArrow=none;endFill=0;" edge="1" parent="h3eSmHnoZ_506x8RKsdc-35" source="h3eSmHnoZ_506x8RKsdc-47" target="h3eSmHnoZ_506x8RKsdc-48">
          <mxGeometry relative="1" as="geometry" />
        </mxCell>
        <mxCell id="h3eSmHnoZ_506x8RKsdc-47" value="&lt;font style=&quot;font-size: 10px;&quot;&gt;index.html&lt;/font&gt;" style="whiteSpace=wrap;html=1;verticalAlign=top;labelBackgroundColor=default;shadow=0;dashed=0;spacingTop=3;" vertex="1" parent="h3eSmHnoZ_506x8RKsdc-35">
          <mxGeometry x="123" y="791.1" width="80" height="30" as="geometry" />
        </mxCell>
        <mxCell id="h3eSmHnoZ_506x8RKsdc-48" value="&lt;font style=&quot;font-size: 10px;&quot;&gt;style.css&lt;/font&gt;" style="whiteSpace=wrap;html=1;verticalAlign=top;labelBackgroundColor=default;shadow=0;dashed=0;spacingTop=3;" vertex="1" parent="h3eSmHnoZ_506x8RKsdc-35">
          <mxGeometry x="123" y="831.1" width="80" height="30" as="geometry" />
        </mxCell>
        <mxCell id="h3eSmHnoZ_506x8RKsdc-49" value="" style="edgeStyle=orthogonalEdgeStyle;rounded=0;orthogonalLoop=1;jettySize=auto;html=1;entryX=0.5;entryY=0;entryDx=0;entryDy=0;endArrow=none;endFill=0;" edge="1" parent="h3eSmHnoZ_506x8RKsdc-35" source="h3eSmHnoZ_506x8RKsdc-50" target="h3eSmHnoZ_506x8RKsdc-53">
          <mxGeometry relative="1" as="geometry" />
        </mxCell>
        <mxCell id="h3eSmHnoZ_506x8RKsdc-50" value="about.html" style="rounded=1;whiteSpace=wrap;html=1;" vertex="1" parent="h3eSmHnoZ_506x8RKsdc-35">
          <mxGeometry x="242" y="451.1" width="110" height="20" as="geometry" />
        </mxCell>
        <mxCell id="h3eSmHnoZ_506x8RKsdc-51" style="edgeStyle=orthogonalEdgeStyle;rounded=0;orthogonalLoop=1;jettySize=auto;html=1;exitX=0.5;exitY=1;exitDx=0;exitDy=0;" edge="1" parent="h3eSmHnoZ_506x8RKsdc-35" source="h3eSmHnoZ_506x8RKsdc-50" target="h3eSmHnoZ_506x8RKsdc-50">
          <mxGeometry relative="1" as="geometry" />
        </mxCell>
        <mxCell id="h3eSmHnoZ_506x8RKsdc-52" value="" style="edgeStyle=orthogonalEdgeStyle;rounded=0;orthogonalLoop=1;jettySize=auto;html=1;endArrow=none;endFill=0;" edge="1" parent="h3eSmHnoZ_506x8RKsdc-35" source="h3eSmHnoZ_506x8RKsdc-53" target="h3eSmHnoZ_506x8RKsdc-55">
          <mxGeometry relative="1" as="geometry" />
        </mxCell>
        <mxCell id="h3eSmHnoZ_506x8RKsdc-53" value="services.html" style="rounded=1;whiteSpace=wrap;html=1;" vertex="1" parent="h3eSmHnoZ_506x8RKsdc-35">
          <mxGeometry x="242" y="481.1" width="110" height="20" as="geometry" />
        </mxCell>
        <mxCell id="h3eSmHnoZ_506x8RKsdc-54" value="" style="edgeStyle=orthogonalEdgeStyle;rounded=0;orthogonalLoop=1;jettySize=auto;html=1;endArrow=none;endFill=0;" edge="1" parent="h3eSmHnoZ_506x8RKsdc-35" source="h3eSmHnoZ_506x8RKsdc-55" target="h3eSmHnoZ_506x8RKsdc-57">
          <mxGeometry relative="1" as="geometry" />
        </mxCell>
        <mxCell id="h3eSmHnoZ_506x8RKsdc-55" value="gallery.html" style="rounded=1;whiteSpace=wrap;html=1;" vertex="1" parent="h3eSmHnoZ_506x8RKsdc-35">
          <mxGeometry x="242" y="510" width="110" height="20" as="geometry" />
        </mxCell>
        <mxCell id="h3eSmHnoZ_506x8RKsdc-56" value="" style="edgeStyle=orthogonalEdgeStyle;rounded=0;orthogonalLoop=1;jettySize=auto;html=1;endArrow=none;endFill=0;" edge="1" parent="h3eSmHnoZ_506x8RKsdc-35" source="h3eSmHnoZ_506x8RKsdc-57" target="h3eSmHnoZ_506x8RKsdc-59">
          <mxGeometry relative="1" as="geometry" />
        </mxCell>
        <mxCell id="h3eSmHnoZ_506x8RKsdc-57" value="contact.html" style="rounded=1;whiteSpace=wrap;html=1;" vertex="1" parent="h3eSmHnoZ_506x8RKsdc-35">
          <mxGeometry x="242" y="545" width="110" height="20" as="geometry" />
        </mxCell>
        <mxCell id="h3eSmHnoZ_506x8RKsdc-58" value="" style="edgeStyle=orthogonalEdgeStyle;rounded=0;orthogonalLoop=1;jettySize=auto;html=1;endArrow=none;endFill=0;" edge="1" parent="h3eSmHnoZ_506x8RKsdc-35" source="h3eSmHnoZ_506x8RKsdc-59" target="h3eSmHnoZ_506x8RKsdc-61">
          <mxGeometry relative="1" as="geometry" />
        </mxCell>
        <mxCell id="h3eSmHnoZ_506x8RKsdc-59" value="fees.html" style="rounded=1;whiteSpace=wrap;html=1;" vertex="1" parent="h3eSmHnoZ_506x8RKsdc-35">
          <mxGeometry x="244" y="580" width="110" height="20" as="geometry" />
        </mxCell>
        <mxCell id="h3eSmHnoZ_506x8RKsdc-60" value="" style="edgeStyle=orthogonalEdgeStyle;rounded=0;orthogonalLoop=1;jettySize=auto;html=1;endArrow=none;endFill=0;" edge="1" parent="h3eSmHnoZ_506x8RKsdc-35" source="h3eSmHnoZ_506x8RKsdc-61" target="h3eSmHnoZ_506x8RKsdc-64">
          <mxGeometry relative="1" as="geometry" />
        </mxCell>
        <mxCell id="h3eSmHnoZ_506x8RKsdc-61" value="admission.html" style="rounded=1;whiteSpace=wrap;html=1;" vertex="1" parent="h3eSmHnoZ_506x8RKsdc-35">
          <mxGeometry x="244" y="610" width="110" height="20" as="geometry" />
        </mxCell>
        <mxCell id="h3eSmHnoZ_506x8RKsdc-62" value="" style="edgeStyle=orthogonalEdgeStyle;rounded=0;orthogonalLoop=1;jettySize=auto;html=1;endArrow=none;endFill=0;" edge="1" parent="h3eSmHnoZ_506x8RKsdc-35" source="h3eSmHnoZ_506x8RKsdc-64">
          <mxGeometry relative="1" as="geometry">
            <mxPoint x="400" y="650" as="targetPoint" />
          </mxGeometry>
        </mxCell>
        <mxCell id="h3eSmHnoZ_506x8RKsdc-63" value="" style="edgeStyle=orthogonalEdgeStyle;rounded=0;orthogonalLoop=1;jettySize=auto;html=1;endArrow=none;endFill=0;" edge="1" parent="h3eSmHnoZ_506x8RKsdc-35" source="h3eSmHnoZ_506x8RKsdc-64" target="h3eSmHnoZ_506x8RKsdc-66">
          <mxGeometry relative="1" as="geometry" />
        </mxCell>
        <mxCell id="h3eSmHnoZ_506x8RKsdc-64" value="bookings.html" style="rounded=1;whiteSpace=wrap;html=1;" vertex="1" parent="h3eSmHnoZ_506x8RKsdc-35">
          <mxGeometry x="242" y="640" width="110" height="20" as="geometry" />
        </mxCell>
        <mxCell id="h3eSmHnoZ_506x8RKsdc-65" value="" style="edgeStyle=orthogonalEdgeStyle;rounded=0;orthogonalLoop=1;jettySize=auto;html=1;endArrow=none;endFill=0;" edge="1" parent="h3eSmHnoZ_506x8RKsdc-35" source="h3eSmHnoZ_506x8RKsdc-66" target="h3eSmHnoZ_506x8RKsdc-68">
          <mxGeometry relative="1" as="geometry" />
        </mxCell>
        <mxCell id="h3eSmHnoZ_506x8RKsdc-66" value="facilities.html" style="rounded=1;whiteSpace=wrap;html=1;" vertex="1" parent="h3eSmHnoZ_506x8RKsdc-35">
          <mxGeometry x="242" y="670" width="110" height="20" as="geometry" />
        </mxCell>
        <mxCell id="h3eSmHnoZ_506x8RKsdc-67" value="&lt;ul&gt;&lt;li&gt;book a tour&lt;/li&gt;&lt;li&gt;virtual tour&lt;/li&gt;&lt;ul&gt;&lt;li&gt;virtual.html&lt;/li&gt;&lt;/ul&gt;&lt;/ul&gt;" style="text;html=1;align=center;verticalAlign=middle;whiteSpace=wrap;rounded=0;" vertex="1" parent="h3eSmHnoZ_506x8RKsdc-35">
          <mxGeometry x="392" y="640" width="110" height="30" as="geometry" />
        </mxCell>
        <mxCell id="h3eSmHnoZ_506x8RKsdc-68" value="calender.html" style="rounded=1;whiteSpace=wrap;html=1;" vertex="1" parent="h3eSmHnoZ_506x8RKsdc-35">
          <mxGeometry x="242" y="700" width="110" height="20" as="geometry" />
        </mxCell>
        <mxCell id="h3eSmHnoZ_506x8RKsdc-69" value="" style="strokeWidth=1;html=1;shape=mxgraph.flowchart.annotation_1;align=left;pointerEvents=1;" vertex="1" parent="h3eSmHnoZ_506x8RKsdc-35">
          <mxGeometry x="124" y="66" width="56" height="54" as="geometry" />
        </mxCell>
        <mxCell id="h3eSmHnoZ_506x8RKsdc-71" value="" style="strokeWidth=1;html=1;shape=mxgraph.flowchart.annotation_1;align=left;pointerEvents=1;" vertex="1" parent="h3eSmHnoZ_506x8RKsdc-35">
          <mxGeometry x="124" y="120" width="56" height="70" as="geometry" />
        </mxCell>
        <mxCell id="h3eSmHnoZ_506x8RKsdc-72" value="" style="strokeWidth=1;html=1;shape=mxgraph.flowchart.annotation_1;align=left;pointerEvents=1;" vertex="1" parent="h3eSmHnoZ_506x8RKsdc-35">
          <mxGeometry x="124.1" y="190" width="56" height="60" as="geometry" />
        </mxCell>
        <mxCell id="h3eSmHnoZ_506x8RKsdc-73" value="" style="strokeWidth=1;html=1;shape=mxgraph.flowchart.annotation_1;align=left;pointerEvents=1;" vertex="1" parent="h3eSmHnoZ_506x8RKsdc-35">
          <mxGeometry x="124.1" y="250" width="56" height="70" as="geometry" />
        </mxCell>
        <mxCell id="h3eSmHnoZ_506x8RKsdc-74" value="" style="strokeWidth=1;html=1;shape=mxgraph.flowchart.annotation_1;align=left;pointerEvents=1;" vertex="1" parent="h3eSmHnoZ_506x8RKsdc-35">
          <mxGeometry x="124" y="320" width="56" height="70" as="geometry" />
        </mxCell>
      </root>
    </mxGraphModel>
  </diagram>
</mxfile>
